<svg xmlns="http://www.w3.org/2000/svg" xmlns:xlink="http://www.w3.org/1999/xlink" width="104.5149" height="38.04"><path fill="#a3a6b4" d="M10.14 30.11L11.73 30.11L11.73 7.45L1.81 7.45L1.81 30.11L3.39 30.11L3.39 8.75L10.14 8.75ZM19.75 29.23C18.32 29.23 17.43 28.59 16.80 27.29L16.80 18.35C17.50 16.64 18.70 15.12 20.13 15.12C21.97 15.12 23.11 17.59 23.11 21.78C23.11 26.82 21.78 29.23 19.75 29.23ZM19.65 30.40C22.63 30.40 24.60 27.52 24.60 21.65C24.60 17.02 23.05 13.82 20.38 13.82C18.61 13.82 17.43 15.25 16.74 16.77L16.61 14.14L15.31 14.14L15.31 35.06L16.80 35.06L16.80 29.01C17.40 29.80 18.45 30.40 19.65 30.40ZM30.59 29.23C29.07 29.23 28.09 27.93 28.09 25.68C28.09 22.89 29.35 21.68 31.99 21.68L33.70 21.68L33.70 26.09C33.13 27.80 32.08 29.23 30.59 29.23ZM34.14 30.11L35.50 30.11C35.31 29.51 35.16 28.28 35.16 27.17L35.16 18.45C35.16 15.28 33.67 13.82 31.03 13.82C29.23 13.82 27.90 14.61 27.26 15.44L27.67 16.86C28.43 15.75 29.67 15.12 31.03 15.12C32.78 15.12 33.70 16.17 33.70 18.61L33.70 20.60L31.95 20.60C28.50 20.60 26.63 22.38 26.63 25.80C26.63 28.72 28.12 30.43 30.27 30.43C31.86 30.43 33.00 29.48 33.76 27.96C33.86 29.10 34.01 29.70 34.14 30.11ZM40.07 21.84L45.62 30.11L47.26 30.11L41.62 21.56L46.88 14.14L45.43 14.14L40.07 21.65L40.07 14.14L38.58 14.14L38.58 30.11L40.07 30.11ZM56.65 15.37L56.65 14.14L47.77 14.14L47.77 15.37L51.48 15.37L51.48 30.11L52.97 30.11L52.97 15.37ZM66.38 30.11L67.81 30.11L67.81 14.14L66.51 14.14L61.31 25.36C60.99 26.06 60.67 26.75 60.45 27.48L60.36 27.48C60.42 26.79 60.48 26.09 60.48 25.23L60.48 14.14L59.09 14.14L59.09 30.11L60.36 30.11L65.56 18.86C65.90 18.16 66.19 17.50 66.41 16.80L66.51 16.80C66.44 17.47 66.38 18.16 66.38 18.99ZM72.88 21.84L78.43 30.11L80.07 30.11L74.43 21.56L79.69 14.14L78.24 14.14L72.88 21.65L72.88 14.14L71.39 14.14L71.39 30.11L72.88 30.11ZM82.23 35.19C84.48 35.19 85.43 33.09 85.97 30.94L90.06 14.14L88.73 14.14L86.26 24.57C85.97 25.74 85.72 26.91 85.49 28.18L85.40 28.18C85.24 26.95 85.02 25.77 84.73 24.57L82.20 14.14L80.71 14.14L84.67 30.56L84.54 31.03C84.07 32.81 83.31 33.86 82.23 33.86C81.82 33.86 81.50 33.79 81.25 33.73L81.41 35.12C81.63 35.16 81.88 35.19 82.23 35.19ZM96.91 28.21L98.14 28.21L100.81 18.83C101.03 18.07 101.15 17.34 101.31 16.45L101.44 16.45C101.38 17.34 101.31 18.20 101.31 19.27L101.31 30.11L102.74 30.11L102.74 14.14L101.03 14.14L98.17 23.90C97.86 25.04 97.73 25.77 97.64 26.60L97.51 26.60C97.41 25.77 97.32 25.04 97.00 23.90L94.21 14.14L92.47 14.14L92.47 30.11L93.74 30.11L93.74 19.27C93.74 18.13 93.64 17.34 93.58 16.48L93.71 16.48C93.90 17.28 93.99 17.97 94.24 18.83Z"/></svg>