<svg xmlns="http://www.w3.org/2000/svg" xmlns:xlink="http://www.w3.org/1999/xlink" width="68.7573" height="38.04"><path fill="#a3a6b4" d="M9.35 21.43L9.35 30.11L11.79 30.11L11.79 7.45L8.15 7.45C4.56 7.45 1.55 9.83 1.55 14.58C1.55 17.97 2.88 19.81 4.88 20.83L0.63 30.11L3.46 30.11L7.32 21.43ZM9.35 19.40L8.05 19.40C5.93 19.40 4.18 18.23 4.18 14.58C4.18 10.81 6.09 9.51 8.05 9.51L9.35 9.51ZM36.26 28.09L35.00 28.09L35.00 14.14L27.58 14.14L27.58 15.50C27.58 19.75 27.42 24.69 25.96 28.09L24.98 28.09L24.98 33.25L27.20 33.25L27.20 30.11L34.05 30.11L34.05 33.25L36.26 33.25ZM47.01 29.04L46.44 27.14C45.81 27.58 44.70 28.21 43.30 28.21C41.34 28.21 40.32 26.31 40.32 22.70L46.98 22.70L46.98 21.33C46.98 15.91 45.24 13.92 42.57 13.92C39.18 13.92 37.75 17.66 37.75 22.79C37.75 27.71 39.78 30.34 43.08 30.34C44.67 30.34 46.00 29.83 47.01 29.04ZM21.11 14.14L21.11 20.92L17.43 20.92L17.43 14.14L14.96 14.14L14.96 30.11L17.43 30.11L17.43 22.95L21.11 22.95L21.11 30.11L23.55 30.11L23.55 14.14ZM56.20 30.11L58.90 30.11L54.37 21.65L58.33 14.14L55.82 14.14L51.99 21.52L51.99 14.14L49.52 14.14L49.52 30.11L51.99 30.11L51.99 22.16ZM64.70 30.34C66.16 30.34 67.17 29.86 68.03 29.13L67.46 27.29C66.89 27.80 65.97 28.28 64.76 28.28C62.77 28.28 61.81 25.99 61.81 22.00C61.81 17.97 63.08 15.98 64.86 15.98C65.87 15.98 66.82 16.52 67.49 17.09L67.84 14.74C67.14 14.30 66.32 13.92 64.89 13.92C61.15 13.92 59.22 17.12 59.22 22.13C59.22 27.58 61.28 30.34 64.70 30.34ZM32.56 28.09L28.31 28.09C29.64 24.69 29.80 19.78 29.80 16.42L29.80 16.14L32.56 16.14ZM42.57 15.95C44.00 15.95 44.44 17.94 44.44 20.67L40.35 20.67C40.51 17.82 41.05 15.95 42.57 15.95Z"/></svg>